<svg xmlns="http://www.w3.org/2000/svg" width="676" height="58" viewBox="0 0 676 58">
  <g fill="none" fill-rule="evenodd">
    <path fill="#F18B2E" d="M20.436696 57.13668C15.863976 46.03248 14.253336 34.53768 14.253336 22.67928 14.253336 17.568 14.578776 12.44412 15.431256 7.40268L19.794456 7.40268C18.741096 12.19932 18.413496 17.11692 18.413496 22.01364 18.413496 32.30604 19.691856 43.24968 22.668336 53.16372 25.648056 43.24968 26.922816 32.30604 26.922816 22.01364 26.922816 17.11692 26.598816 12.19932 25.542216 7.40268L29.903976 7.40268C30.756456 12.44412 31.083696 17.568 31.083696 22.67928 31.083696 34.53768 29.474136 46.03248 24.899976 57.13668L20.436696 57.13668zM38.2572 19.642176C38.65392 19.281816 39.26556 19.312056 39.62592 19.705896 39.98592 20.102256 39.95892 20.714256 39.56364 21.074616 39.16548 21.434616 38.55564 21.404736 38.19528 21.010896 37.83636 20.614176 37.86336 20.002536 38.2572 19.642176M38.2572 22.649112C38.65392 22.289112 39.26556 22.319352 39.62592 22.716072 39.98592 23.112432 39.95892 23.721552 39.56364 24.084432 39.16548 24.444792 38.55564 24.414552 38.19528 24.018192 37.83636 23.621472 37.86336 23.009472 38.2572 22.649112M40.308588 24.996132C40.703868 24.636132 41.315508 24.662772 41.675868 25.059492 42.036228 25.456212 42.007428 26.068212 41.612508 26.428572 41.215788 26.788932 40.604148 26.758692 40.243788 26.364852 39.884868 25.968132 39.913668 25.356492 40.308588 24.996132M37.647072 32.838804C38.045232 32.478804 38.653992 32.509044 39.017232 32.902524 39.377592 33.299244 39.347352 33.911244 38.953512 34.271244 38.555352 34.631604 37.945512 34.604604 37.585152 34.207884 37.227672 33.814044 37.251792 33.199164 37.647072 32.838804M37.54548 35.8821C37.95876 35.54298 38.56896 35.60346 38.9052 36.01818 39.24756 36.43326 39.18816 37.04202 38.77632 37.38114 38.36016 37.72026 37.7514 37.65978 37.41228 37.24794 37.07316 36.8361 37.13076 36.22446 37.54548 35.8821M39.504744 38.322828C39.922704 37.989828 40.531464 38.059668 40.864464 38.477268 41.197464 38.895228 41.129424 39.503628 40.712904 39.839868 40.293504 40.170348 39.684744 40.103388 39.350304 39.685428 39.020184 39.264588 39.088584 38.656188 39.504744 38.322828M39.698604 30.964788C40.095324 30.606948 40.706604 30.634668 41.066964 31.031028 41.427684 31.427388 41.398884 32.039388 41.003604 32.400108 40.606884 32.760108 39.995244 32.729868 39.636684 32.333148 39.276324 31.939668 39.304764 31.328028 39.698604 30.964788M35.670924 45.911304C36.104364 45.602424 36.709524 45.705744 37.020204 46.141704 37.330524 46.574424 37.227564 47.179944 36.793044 47.492064 36.358524 47.801304 35.754444 47.697984 35.444124 47.265264 35.135244 46.828944 35.235324 46.220184 35.670924 45.911304M35.444016 49.278564C35.887536 48.981924 36.488376 49.100004 36.785736 49.544964 37.082376 49.990284 36.964296 50.590044 36.518976 50.889924 36.074016 51.186564 35.474256 51.065244 35.177616 50.620284 34.880976 50.177844 34.999056 49.575204 35.444016 49.278564M37.951344 44.276184C38.390544 43.967304 38.993184 44.070264 39.301704 44.506584 39.612384 44.942184 39.510864 45.548064 39.074904 45.856944 38.637144 46.166184 38.034504 46.062864 37.724184 45.626904 37.415304 45.190584 37.516464 44.585064 37.951344 44.276184M42.634152 15.099984C42.868872 14.618664 43.447392 14.418504 43.927272 14.651784 44.410392 14.885064 44.613432 15.466824 44.376912 15.945264 44.145432 16.426584 43.565472 16.626024 43.083792 16.393104 42.602472 16.160184 42.402672 15.581664 42.634152 15.099984M43.430796 12.08394C43.456356 11.55114 43.910676 11.14254 44.446716 11.1663 44.979516 11.19114 45.391356 11.64798 45.365796 12.18114 45.339876 12.71682 44.885916 13.12578 44.349876 13.10166 43.816716 13.07466 43.404876 12.61998 43.430796 12.08394M43.31268 8.637948C43.2144 8.114148 43.55964 7.608708 44.08488 7.508988 44.61012 7.408548 45.11736 7.753788 45.216 8.277588 45.31716 8.804628 44.97048 9.310068 44.4438 9.410508 43.9182 9.506988 43.41096 9.164988 43.31268 8.637948M42.242184 5.5521C41.972544 5.08914 42.130224 4.49874 42.592104 4.22622 43.053624 3.95658 43.647264 4.11102 43.916904 4.5711 44.186184 5.03442 44.031744 5.62518 43.571664 5.89734 43.108344 6.16698 42.514704 6.01254 42.242184 5.5521M40.678236 17.40186C41.074956 17.04114 41.685156 17.07138 42.046956 17.46486 42.407316 17.86194 42.378516 18.47322 41.983236 18.83394 41.587956 19.19394 40.973436 19.1637 40.615956 18.76698 40.255956 18.3735 40.284396 17.76186 40.678236 17.40186M7.10982 19.642176C6.7131 19.281816 6.10434 19.312056 5.7411 19.705896 5.38074 20.102256 5.40774 20.714256 5.80482 21.074616 6.20154 21.434616 6.81138 21.404736 7.1703 21.010896 7.5303 20.614176 7.5033 20.002536 7.10982 19.642176M7.10982 22.649112C6.7131 22.289112 6.10434 22.319352 5.7411 22.716072 5.38074 23.112432 5.40774 23.721552 5.80482 24.084432 6.20154 24.444792 6.81138 24.414552 7.1703 24.018192 7.5303 23.621472 7.5033 23.009472 7.10982 22.649112M5.058288 24.996132C4.665888 24.636132 4.054248 24.662772 3.691008 25.059492 3.330648 25.456212 3.360888 26.068212 3.754368 26.428572 4.151088 26.788932 4.763088 26.758692 5.123088 26.364852 5.483448 25.968132 5.453208 25.356492 5.058288 24.996132M7.719948 32.838804C7.324668 32.478804 6.713028 32.509044 6.352668 32.902524 5.992308 33.299244 6.019668 33.911244 6.414948 34.271244 6.811668 34.631604 7.421508 34.604604 7.781868 34.207884 8.142228 33.814044 8.115228 33.199164 7.719948 32.838804M7.821396 35.8821C7.408116 35.54298 6.799356 35.60346 6.460236 36.01818 6.119316 36.43326 6.176916 37.04202 6.591996 37.38114 7.006716 37.72026 7.615476 37.65978 7.954596 37.24794 8.293716 36.8361 8.236116 36.22446 7.821396 35.8821M5.863716 38.322828C5.444316 37.989828 4.838796 38.059668 4.502556 38.477268 4.169196 38.895228 4.236156 39.503628 4.656996 39.839868 5.074956 40.170348 5.680476 40.103388 6.016716 39.685428 6.349716 39.264588 6.280236 38.656188 5.863716 38.322828M5.668416 30.964788C5.271696 30.606948 4.662936 30.634668 4.299696 31.031028 3.938976 31.427388 3.968136 32.039388 4.363416 32.400108 4.760136 32.760108 5.371416 32.729868 5.731776 32.333148 6.090696 31.939668 6.065136 31.328028 5.668416 30.964788M9.698724 45.911304C9.262764 45.602424 8.657244 45.705744 8.346924 46.141704 8.036244 46.574424 8.139204 47.179944 8.573724 47.492064 9.009684 47.801304 9.614124 47.697984 9.923004 47.265264 10.231524 46.828944 10.133244 46.220184 9.698724 45.911304M9.92286 49.278564C9.47934 48.981924 8.88102 49.100004 8.58438 49.544964 8.28486 49.990284 8.40582 50.590044 8.8479 50.889924 9.29286 51.186564 9.89262 51.065244 10.18926 50.620284 10.4859 50.177844 10.36818 49.575204 9.92286 49.278564M7.415676 44.276184C6.976476 43.967304 6.377076 44.070264 6.064956 44.506584 5.754636 44.942184 5.856156 45.548064 6.292116 45.856944 6.729876 46.166184 7.333596 46.062864 7.642836 45.626904 7.949916 45.190584 7.850196 44.585064 7.415676 44.276184M2.733912 15.099984C2.497752 14.618664 1.919592 14.418504 1.439712 14.651784.956592 14.885064.753552 15.466824.991512 15.945264 1.221552 16.426584 1.801512 16.626024 2.282832 16.393104 2.764152 16.160184 2.964312 15.581664 2.733912 15.099984M1.937628 12.08394C1.910268 11.55114 1.456308 11.14254.920268 11.1663.387108 11.19114-.024732 11.64798.001188 12.18114.026748 12.71682.481068 13.12578 1.015668 13.10166 1.549908 13.07466 1.961748 12.61998 1.937628 12.08394M2.055744 8.637948C2.152584 8.114148 1.808784 7.608708 1.283184 7.508988.756864 7.408548.251064 7.753788.150984 8.277588.049464 8.804628.396504 9.310068.923184 9.410508 1.448424 9.506988 1.956024 9.164988 2.055744 8.637948M3.124512 5.5521C3.394152 5.08914 3.236832 4.49874 2.776392 4.22622 2.313072 3.95658 1.722672 4.11102 1.450152 4.5711 1.180872 5.03442 1.334952 5.62518 1.798272 5.89734 2.260152 6.16698 2.852352 6.01254 3.124512 5.5521M4.6872 17.40186C4.29192 17.04114 3.68208 17.07138 3.32172 17.46486 2.96136 17.86194 2.9916 18.47322 3.38364 18.83394 3.77892 19.19394 4.39344 19.1637 4.7538 18.76698 5.11092 18.3735 5.08392 17.76186 4.6872 17.40186"/>
    <path fill="#F18B2E" d="M8.563176 2.687544C8.872056 2.351664 9.391176 2.330424 9.728856 2.633184 10.066536 2.942064 10.089216 3.462984 9.783576 3.798864 9.476136 4.135104 8.955216 4.159224 8.618976 3.853584 8.281296 3.547584 8.257536 3.027024 8.563176 2.687544M16.351416 45.787104L10.822176 41.886864C10.381536 41.535864 10.310616 40.890744 10.664856 40.449024L14.362056 36.121464C15.125256 35.282304 15.064776 33.983424 14.225616 33.217344L9.596016 29.002104C9.178056 28.620864 9.147816 27.972864 9.527616 27.554904L13.750416 22.927824C14.516496 22.089024 14.456016 20.790144 13.617216 20.026944L7.485336 14.424624C6.649416 13.658544 6.667776 12.420144 7.353576 11.523744L13.735296 3.002544C14.362056 2.178864 14.322816 1.219104 13.623336.580104 13.273416.265104 12.584736-.107136 11.326176.028944 5.308056.677304 1.267056 5.952024 1.931616 12.056904 2.267856 15.124104 3.360816 16.223904 3.960576 16.771824L8.576856 20.987064C8.996256 21.368304 9.025056 22.013424 8.643456 22.434624L4.423896 27.061344C3.659256 27.900144 3.719736 29.195784 4.558536 29.962224L9.187056 34.183584C9.605016 34.564824 9.635256 35.213184 9.253656 35.627544L5.538096 40.285224C4.829616 41.172264 4.975056 42.462504 5.858856 43.170984L11.397816 47.122704C11.842776 47.474064 11.919816 48.115944 11.573136 48.560904L9.185616 52.128144C8.523936 53.049024 8.735616 54.332424 9.659376 54.992664 10.583136 55.652904 11.864016 55.443744 12.523896 54.520344L16.701336 48.669984C17.402256 47.776824 17.246376 46.486944 16.351416 45.787104M36.749196 3.853512C36.411516 4.159512 35.890596 4.135032 35.583516 3.799152 35.277516 3.462912 35.300196 2.941992 35.637876 2.633112 35.975556 2.330712 36.496476 2.351592 36.803556 2.687472 37.109556 3.026952 37.085436 3.547512 36.749196 3.853512M34.040556.028872C32.782356-.107208 32.093316.265032 31.743756.580032 31.044276 1.219392 31.004676 2.179152 31.631436 3.002832L38.014956 11.524032C38.699316 12.420072 38.717316 13.658472 37.881756 14.424552L31.749876 20.026872C30.911076 20.790072 30.850236 22.088952 31.616316 22.927752L35.839116 27.554832C36.219276 27.972792 36.189036 28.620792 35.771076 29.002032L31.141116 33.217272C30.302316 33.983352 30.243276 35.282232 31.004676 36.121392L34.705116 40.448952C35.057916 40.890672 34.985196 41.535792 34.544556 41.886792L29.015316 45.787032C28.122156 46.486872 27.966276 47.776752 28.665396 48.669912L32.841396 54.520272C33.503076 55.444032 34.785396 55.653192 35.707356 54.992952 36.631116 54.332352 36.843156 53.048952 36.182916 52.128432L33.793956 48.561192C33.446916 48.115872 33.524316 47.473992 33.969276 47.122632L39.510756 43.170912C40.394916 42.462432 40.538916 41.172192 39.831876 40.285152L36.114876 35.627472C35.731836 35.213112 35.762076 34.565112 36.179676 34.183512L40.809996 29.962152C41.648796 29.196072 41.707836 27.900072 40.944636 27.061272L36.723276 22.434552C36.341676 22.013352 36.373716 21.368232 36.790236 20.986992L41.406516 16.771752C42.007356 16.223832 43.098876 15.124392 43.435476 12.056832 44.100036 5.951952 40.060476.677232 34.040556.028872"/>
    <path fill="#3E4729" d="M256.90536 29.77722C256.5558 30.58902 256.08024 31.31298 255.43656 31.93686 254.77668 32.5755 254.02716 33.07806 253.22184 33.38118 252.37404 33.7077 251.50608 33.87762 250.551 33.87762 249.62112 33.87762 248.75208 33.7077 247.8996 33.38118 247.05792 33.02982 246.33396 32.55138 245.69676 31.93686 245.05164 31.31298 244.55232 30.58902 244.2222 29.77722 243.87084 28.97514 243.70416 28.14534 243.70416 27.23418 243.70416 26.34966 243.87084 25.49574 244.2222 24.66954 244.575 23.86062 245.05164 23.16114 245.69676 22.53726 246.37212 21.91338 247.12308 21.4227 247.96152 21.06846 248.79132 20.73546 249.66036 20.56878 250.551 20.56878 251.4852 20.56878 252.3528 20.73546 253.17792 21.06846 254.0106 21.39858 254.75256 21.89826 255.39876 22.53726 256.08024 23.19786 256.57668 23.9211 256.92516 24.72966 257.25204 25.51698 257.42196 26.34966 257.42196 27.23418 257.42196 28.14534 257.25204 28.97514 256.90536 29.77722L256.90536 29.77722zM258.19092 20.00898C257.17644 19.04562 256.01652 18.31878 254.71764 17.8011 253.39104 17.30142 252.009 17.03826 250.551 17.03826 249.12792 17.03826 247.7682 17.30142 246.45996 17.8011 245.15172 18.29466 243.972 19.04562 242.96544 20.00898 241.94808 20.94426 241.16364 22.04046 240.60204 23.28534 240.06276 24.52374 239.77656 25.82874 239.77656 27.1521 239.77656 28.53918 240.04476 29.8863 240.58224 31.12506 241.11828 32.36958 241.91028 33.48378 242.96544 34.47702 243.95112 35.40654 245.11392 36.15786 246.43836 36.66942 247.7394 37.16622 249.12792 37.43298 250.551 37.43298 252.009 37.43298 253.39104 37.1871 254.69316 36.68778 255.99996 36.17586 257.15232 35.45226 258.21216 34.47702 259.22952 33.52662 259.99272 32.42394 260.55 31.20966 261.0918 29.96838 261.35532 28.66014 261.35532 27.3159 261.35532 25.88958 261.0918 24.56622 260.57088 23.34906 260.02584 22.10094 259.22952 20.98386 258.19092 20.00898L258.19092 20.00898zM322.64388 33.7563L322.64388 28.8477 332.07984 28.8477 332.07984 25.4169 322.64388 25.4169 322.64388 20.6991 332.37468 20.6991 332.37468 17.28342 318.65436 17.28342 318.65436 37.16622 332.68824 37.16622 332.68824 33.7563 322.64388 33.7563zM312.60744 29.49246C312.58908 30.77082 312.18192 31.72482 311.26428 32.48442 310.37688 33.2325 309.17484 33.65658 307.60164 33.65658 306.67356 33.65658 305.87112 33.48378 305.18388 33.1965 304.47684 32.90238 303.87852 32.44806 303.3594 31.85154 303.10056 31.53978 302.90508 31.17042 302.80824 30.73158 302.68404 30.30138 302.6142 29.46906 302.6142 28.26954L302.6142 17.19882 298.91268 17.19882 298.91268 28.37862C298.91268 29.90466 299.01708 31.04334 299.24712 31.85154 299.47428 32.6421 299.8422 33.36246 300.37932 33.99858 301.23324 35.05842 302.26608 35.8461 303.50592 36.40014 304.7328 36.93582 306.11052 37.20906 307.60164 37.20906 310.12092 37.20906 312.24096 36.50598 313.8534 35.1009 315.48996 33.7077 316.31652 31.80942 316.28808 29.57454L316.28808 17.19882 312.60744 17.19882 312.60744 29.49246zM292.85388 29.7621C292.49964 30.58902 292.02588 31.33422 291.3822 31.95486L291.35808 31.97322C290.69784 32.6601 289.953 33.15114 289.14768 33.50502 288.31608 33.83514 287.45172 34.01694 286.5402 34.01694 285.63048 34.01694 284.77512 33.83514 283.92984 33.48378 283.08348 33.11442 282.35988 32.61834 281.71188 31.97322L281.71188 31.95486C281.07432 31.33422 280.584 30.58902 280.25388 29.7621 279.8964 28.93266 279.73296 28.06686 279.73296 27.1521 279.73296 26.22222 279.8964 25.35318 280.25388 24.50862 280.584 23.67882 281.07432 22.95486 281.70144 22.32522 282.38292 21.66858 283.1184 21.17466 283.95756 20.82294 284.80824 20.46582 285.65172 20.30562 286.5402 20.30562 287.45172 20.30562 288.31608 20.46582 289.14768 20.82294 289.97136 21.15054 290.69784 21.65022 291.34728 22.31046 292.02588 22.99158 292.5162 23.73318 292.85388 24.56622 293.20524 25.37154 293.37048 26.22222 293.37048 27.1521 293.37048 28.06686 293.20524 28.93266 292.85388 29.7621L292.85388 29.7621zM295.04484 33.89886C296.53704 32.11794 297.28332 30.01374 297.28332 27.6363 297.28332 26.18298 297.00648 24.81138 296.49132 23.5485 295.95996 22.31046 295.16904 21.17466 294.13332 20.16018 293.14152 19.18782 291.97728 18.41922 290.67984 17.90442 289.35036 17.3835 287.991 17.11998 286.5402 17.11998 285.11568 17.11998 283.7484 17.3835 282.44772 17.90442 281.15604 18.41922 279.99936 19.1637 278.96076 20.16018 277.97364 21.12894 277.18632 22.24674 276.65352 23.5089 276.08868 24.79338 275.8158 26.09226 275.8158 27.44586 275.8158 29.90466 276.56568 32.09418 278.037 33.9471 279.4878 35.77914 281.4228 37.00278 283.78476 37.5993 285.54732 38.8467 287.20368 39.8007 288.7704 40.45482 290.39364 41.13594 291.86532 41.46894 293.20524 41.46894L293.59728 41.46894C293.72148 41.46894 293.82444 41.45742 293.92128 41.43582L294.0804 41.4117 297.02736 38.82222 296.80344 38.20194 296.64144 37.8081 296.25084 37.89594C295.8678 37.97766 295.5438 38.0169 295.22952 38.05326 294.93756 38.1051 294.67548 38.1051 294.41952 38.1051 293.65488 38.1051 292.85388 37.9899 292.00608 37.78974 291.48372 37.63818 290.88576 37.43298 290.25 37.1871 292.19076 36.4635 293.82444 35.38566 295.04484 33.89886L295.04484 33.89886zM270.0036 25.47738L270.0036 25.47738 269.57664 25.24446C268.43508 24.58422 267.60348 23.98158 267.06636 23.46678 266.79708 23.19786 266.61528 22.97322 266.51232 22.77054 266.38056 22.56426 266.34564 22.4127 266.34564 22.2921 266.36256 21.79242 266.52744 21.45654 266.9814 21.12894 267.44184 20.79918 268.03836 20.61414 268.84548 20.61414 269.53092 20.61414 270.19728 20.73546 270.87264 21.0051 271.56024 21.29562 272.32164 21.73482 273.15144 22.3767L273.95532 22.97322 273.95532 18.6885 273.71304 18.54018C272.92716 18.11322 272.1384 17.78022 271.3482 17.55018 270.56376 17.3439 269.77932 17.21682 268.965 17.21682 267.17544 17.21682 265.63716 17.71974 264.44268 18.70974 263.26116 19.70298 262.63908 21.04722 262.63908 22.59486 262.63908 23.72166 262.95264 24.70842 263.58984 25.53822 263.94588 25.97418 264.46536 26.4285 265.16772 26.94294 265.88988 27.49122 266.81508 28.08486 267.93828 28.77498 268.64244 29.17782 269.21016 29.5533 269.65224 29.86578 270.09432 30.17718 270.40176 30.44394 270.54864 30.61026 270.8532 30.97998 270.96948 31.35186 271.00296 31.85154 270.96948 32.44806 270.79092 32.82354 270.33984 33.17202 269.90244 33.50502 269.24076 33.7077 268.33212 33.7077 267.48576 33.7077 266.69664 33.52662 265.94892 33.13566 265.21128 32.7573 264.4002 32.09418 263.52936 31.19166L262.66032 30.25278 262.66032 35.2251 262.87524 35.36442C263.6928 36.0063 264.55896 36.4851 265.47804 36.77238 266.40468 37.0935 267.41916 37.23246 268.51068 37.23246 270.31104 37.23246 271.84608 36.73314 273.03156 35.74278 274.22496 34.74666 274.8456 33.42042 274.8456 31.89114 274.8456 30.58902 274.53672 29.44746 273.87504 28.51758 273.21336 27.56718 271.93428 26.5923 270.0036 25.47738L270.0036 25.47738zM233.75088 32.88726C233.23608 33.2811 232.28496 33.55038 230.89968 33.52662L227.45232 33.52662 227.45232 28.14534 230.41656 28.14534C231.97032 28.14534 233.04816 28.40886 233.6418 28.8477 234.22932 29.29014 234.5382 29.8863 234.5382 30.8979 234.5382 31.89114 234.27432 32.48442 233.75088 32.88726L233.75088 32.88726zM227.45232 19.31526L229.77792 19.31526C231.0012 19.31526 231.8022 19.53306 232.23672 19.8909 232.45488 20.08134 232.61076 20.27826 232.73604 20.59326 232.8408 20.88378 232.90596 21.25638 232.90596 21.71358 232.90596 22.70718 232.61076 23.32458 232.011 23.77854 231.43716 24.21198 230.41656 24.48414 228.95424 24.48414L227.45232 24.48414 227.45232 19.31526zM234.8046 25.70166C235.34352 25.35318 235.82052 24.95358 236.1672 24.46002 236.7576 23.66046 237.01644 22.6647 237.01644 21.52602 237.01644 19.70298 236.39724 18.20718 235.1556 17.18046 233.91396 16.1451 232.2216 15.67566 230.08536 15.67566L223.52184 15.67566 223.52184 37.20906 231.2118 37.20906C233.4222 37.20906 235.23624 36.66942 236.61072 35.57322 237.97188 34.47702 238.70628 32.95098 238.68036 31.10382 238.68036 29.67462 238.2156 28.40886 237.33612 27.40338 236.66652 26.65818 235.82052 26.09226 234.8046 25.70166L234.8046 25.70166zM206.52048 17.18046L202.5306 17.18046 202.5306 37.20906 216.55404 37.20906 216.55404 33.7959 206.52048 33.7959 206.52048 17.18046zM190.44216 28.16946L199.81872 28.16946 199.81872 24.52374 190.44216 24.52374 190.44216 19.28826 200.08404 19.28826 200.08404 15.69366 186.46632 15.69366 186.46632 37.20906 200.39904 37.20906 200.39904 33.56586 190.44216 33.56586 190.44216 28.16946zM169.660188 35.231184L169.660188 24.569064 172.626228 24.569064C173.427228 24.569064 174.132828 24.656904 174.710988 24.781104 175.295628 24.923304 175.813308 25.129224 176.222268 25.416864 176.911308 25.877304 177.446988 26.519184 177.836148 27.303624 178.235748 28.090584 178.414668 28.962864 178.414668 29.910744 178.414668 30.843504 178.235748 31.706424 177.836148 32.521104 177.446988 33.305184 176.911308 33.929064 176.222268 34.404624 175.813308 34.692264 175.295628 34.901064 174.710988 35.046504 174.132828 35.167824 173.427228 35.231184 172.626228 35.231184L169.660188 35.231184zM175.250268 35.824824C175.940388 35.643024 176.534028 35.355384 177.048828 34.955424 177.823908 34.380144 178.414668 33.659424 178.849188 32.766264 179.286588 31.878864 179.495748 30.901104 179.495748 29.889504 179.495748 28.875384 179.286588 27.921024 178.849188 27.012744 178.414668 26.122464 177.823908 25.398864 177.048828 24.820344 176.534028 24.426504 175.940388 24.136344 175.268268 23.954544 174.606588 23.791104 173.823948 23.682024 172.871388 23.682024L168.630588 23.682024 168.630588 36.115344 172.871388 36.115344C173.802708 36.115344 174.593268 36.012384 175.250268 35.824824L175.250268 35.824824zM157.472028 31.170384L159.735348 25.795944 161.968788 31.170384 157.472028 31.170384zM159.521868 24.157224L154.413468 36.115344 155.406708 36.115344 157.148028 31.978944 162.292788 31.978944 164.036988 36.115344 165.030228 36.115344 159.918588 24.157224 159.521868 24.157224zM142.724988 35.231184L142.724988 24.569064 145.683468 24.569064C146.487348 24.569064 147.188268 24.656904 147.766788 24.781104 148.354308 24.923304 148.865868 25.129224 149.280948 25.416864 149.968188 25.877304 150.502788 26.519184 150.900948 27.303624 151.288308 28.090584 151.472988 28.962864 151.472988 29.910744 151.472988 30.843504 151.288308 31.706424 150.900948 32.521104 150.502788 33.305184 149.968188 33.929064 149.280948 34.404624 148.865868 34.692264 148.354308 34.901064 147.766788 35.046504 147.188268 35.167824 146.487348 35.231184 145.683468 35.231184L142.724988 35.231184zM148.308588 35.824824C148.990068 35.643024 149.571468 35.355384 150.110388 34.955424 150.879708 34.380144 151.472988 33.659424 151.912188 32.766264 152.345268 31.878864 152.548308 30.901104 152.548308 29.889504 152.548308 28.875384 152.345268 27.921024 151.912188 27.012744 151.472988 26.122464 150.879708 25.398864 150.110388 24.820344 149.571468 24.426504 148.990068 24.136344 148.324068 23.954544 147.669948 23.791104 146.882628 23.682024 145.931508 23.682024L141.668028 23.682024 141.668028 36.115344 145.931508 36.115344C146.861388 36.115344 147.645828 36.012384 148.308588 35.824824L148.308588 35.824824zM136.023588 36.118584L137.069748 36.118584 137.069748 23.682024 136.023588 23.682024 136.023588 36.118584zM132.059988 32.887224C132.059988 32.478624 131.987268 32.085144 131.865948 31.706424 131.714748 31.337064 131.514948 31.004064 131.257548 30.719304 130.868388 30.283344 130.096188 29.832264 128.983068 29.371824 128.859228 29.311344 128.777508 29.283624 128.716668 29.244384 127.696428 28.811304 127.042308 28.441944 126.748548 28.090584 126.437868 27.763704 126.291348 27.303624 126.291348 26.767224 126.291348 26.101584 126.515268 25.544304 126.993708 25.086744 127.469268 24.656904 128.070108 24.426504 128.810628 24.426504 129.267828 24.426504 129.725028 24.511824 130.179348 24.672024 130.663908 24.838704 131.134788 25.111224 131.651028 25.462224L131.651028 24.345144C131.177268 24.075504 130.721148 23.869944 130.263948 23.724144 129.809988 23.603184 129.335868 23.515344 128.859228 23.515344 127.800828 23.515344 126.954468 23.827104 126.291348 24.448104 125.626428 25.068744 125.297748 25.856064 125.297748 26.801064 125.297748 27.588384 125.506908 28.236024 125.944308 28.735704 126.375948 29.229264 127.181268 29.726064 128.362428 30.213504 129.501108 30.698064 130.224708 31.109904 130.539708 31.460904 130.868388 31.833504 131.005908 32.291064 131.005908 32.851224 131.005908 33.617304 130.787748 34.210584 130.304988 34.668144 129.853908 35.103744 129.207348 35.330904 128.404908 35.330904 127.927908 35.330904 127.405548 35.207064 126.911988 34.998264 126.375948 34.773624 125.837028 34.443864 125.258508 33.986664L125.258508 35.182944C125.797788 35.561304 126.310788 35.824824 126.833148 36.012384 127.366308 36.194184 127.888668 36.282024 128.424708 36.282024 129.485988 36.282024 130.347468 35.979264 131.033268 35.330904 131.714748 34.692264 132.059988 33.883704 132.059988 32.887224L132.059988 32.887224zM114.439068 24.535944L116.504388 24.535944C117.433908 24.535944 118.138068 24.717384 118.654308 25.129224 119.150748 25.522704 119.397708 26.083224 119.397708 26.801064 119.397708 27.324864 119.299068 27.775944 119.072268 28.133064 118.841868 28.508544 118.511748 28.774944 118.054548 28.971864 117.809388 29.081304 117.515628 29.165544 117.146268 29.229264 116.764668 29.262744 116.125668 29.283624 115.203708 29.283624L114.439068 29.283624 114.439068 24.535944zM114.439068 30.137544L115.438428 30.137544C116.151588 30.137544 116.676828 30.198744 117.022068 30.283344 117.376308 30.361824 117.663948 30.534624 117.894348 30.755304 118.054548 30.925224 118.263708 31.194504 118.551348 31.585104 118.820628 31.960584 119.171988 32.457384 119.544588 33.060024L121.509828 36.115344 122.624028 36.115344 119.232468 30.885984C119.088828 30.658824 118.920708 30.447144 118.760148 30.283344 118.572588 30.116664 118.361988 29.974104 118.138068 29.832264 118.920708 29.580624 119.509668 29.202264 119.897388 28.690344 120.292668 28.190664 120.476988 27.548784 120.476988 26.801064 120.476988 25.795944 120.143988 25.026264 119.443068 24.490224 118.736028 23.954544 117.745668 23.682024 116.445348 23.682024L113.460948 23.682024 113.460948 36.115344 114.439068 36.115344 114.439068 30.137544zM109.076148 35.267184L103.262148 35.267184 103.262148 30.213504 108.743148 30.213504 108.743148 29.416824 103.262148 29.416824 103.262148 24.490224 108.933948 24.490224 108.933948 23.682024 102.266028 23.682024 102.266028 36.115344 109.076148 36.115344 109.076148 35.267184zM94.096188 36.324144L99.311868 23.682024 98.255268 23.682024 94.011228 34.113744 89.817228 23.682024 88.714908 23.682024 93.947868 36.324144 94.096188 36.324144zM84.101508 36.115344L85.158468 36.115344 85.158468 23.682024 84.101508 23.682024 84.101508 36.115344zM69.574068 24.947424L78.678108 35.933544 79.589628 35.933544 79.589628 23.515344 78.610068 23.515344 78.610068 34.335504 69.613668 23.515344 68.580828 23.515344 68.580828 35.933544 69.574068 35.933544 69.574068 24.947424zM58.336668 37.217304C60.114348 37.217304 61.525188 36.654624 62.565588 35.540064 63.590508 34.422624 64.132668 32.911704 64.132668 31.025304L64.132668 22.809744 62.948628 22.809744 62.948628 31.091544C62.948628 32.599944 62.533908 33.798744 61.715988 34.692264 60.862428 35.579664 59.744988 36.039744 58.336668 36.039744 56.931588 36.039744 55.811268 35.579664 54.983268 34.692264 54.136908 33.798744 53.717508 32.599944 53.717508 31.091544L53.717508 22.809744 52.587828 22.809744 52.587828 31.025304C52.587828 32.929704 53.097948 34.443864 54.136908 35.540064 55.172268 36.654624 56.580588 37.217304 58.336668 37.217304L58.336668 37.217304z"/>
    <polygon fill="#3E4729" points="347.578 42.886 351.569 42.886 351.569 12.777 347.578 12.777"/>
    <text fill="#3E4729" font-family="AcherusGrotesque-Regular, Acherus Grotesque" font-size="12.403" letter-spacing="-.372">
      <tspan x="365.562" y="29.357">F</tspan> <tspan x="372.557" y="29.357">acu</tspan> <tspan x="393.804" y="29.357" letter-spacing="-.074">l</tspan> <tspan x="397.14" y="29.357" letter-spacing="-.076">t</tspan> <tspan x="402.423" y="29.357">ad de </tspan> <tspan x="438.876" y="29.357" letter-spacing=".037">Ciencias Económicas y Administrativas </tspan>
    </text>
  </g>
</svg>
